<svg id="Layer_1" enable-background="new 0 0 512 512" height="512" viewBox="0 0 512 512" width="512" xmlns="http://www.w3.org/2000/svg"><g><g><path d="m403.708 250.243-118.251 98.542c-39.71 33.092-89.765 51.215-141.457 51.215h-80c-26.51 0-48-21.49-48-48v-96c0-79.529 64.471-144 144-144h272c35.346 0 64 28.654 64 64 0 35.346-28.654 64-64 64-10.338 0-20.349 3.625-28.292 10.243z" fill="#d73728"/></g><g><circle cx="192" cy="368" fill="#3cb44b" r="32"/></g><g><path d="m290.542 291.215-69.085 57.57c-39.71 33.092-89.765 51.215-141.457 51.215h-16c-26.51 0-48-21.49-48-48v-96c0-79.529 64.471-144 144-144h272c35.346 0 64 28.654 64 64 0 35.346-28.654 64-64 64-51.692 0-101.747 18.123-141.458 51.215z" fill="#f05a4b"/></g><g><path d="m432 144h-96c-4.418 0-8-3.582-8-8s3.582-8 8-8h96c4.418 0 8 3.582 8 8s-3.582 8-8 8z" fill="#ff7869"/></g><g><path d="m40 360c-4.418 0-8-3.582-8-8v-96c0-70.579 57.42-128 128-128h96c4.418 0 8 3.582 8 8s-3.582 8-8 8h-96c-61.757 0-112 50.243-112 112v96c0 4.418-3.582 8-8 8z" fill="#ff7869"/></g><g><path d="m288 293.333 2.542-2.118c4.363-3.636 8.857-7.079 13.458-10.349v-136.866c0-17.673 14.327-32 32-32h-80c17.673 0 32 14.327 32 32z" fill="#d7e6f0"/></g></g></svg>