<svg id="Capa_1" enable-background="new 0 0 512 512" height="512" viewBox="0 0 512 512" width="512" xmlns="http://www.w3.org/2000/svg"><g><path d="m331 99.906v-84.906h-75-75v84.906c-36.478 38.575-57.208 89.167-59.537 142.094l14.537 30v150l-15 30v15c0 24.814 20.186 45 45 45h90 90c24.814 0 45-20.186 45-45v-215.142c0-56.63-21.255-110.98-60-151.952z" fill="#fff8dc"/><path d="m391 467v-215.142c0-56.631-21.255-110.98-60-151.952v-84.906h-75v497h90c24.814 0 45-20.186 45-45z" fill="#f8e8cd"/><path d="m286 242h-30-134.537c-.145 3.289-.463 6.546-.463 9.858v50.142l30 15-30 15v30l30 15-30 15v60h135 30c8.291 0 15-6.709 15-15v-180c0-8.291-6.709-15-15-15z" fill="#9ed0ff"/><g fill="#73bcff"><path d="m301 437v-180c0-8.291-6.709-15-15-15h-30v210h30c8.291 0 15-6.709 15-15z"/><path d="m196 332c8.291 0 15-6.709 15-15s-6.709-15-15-15h-75v30z"/><path d="m196 392c8.291 0 15-6.709 15-15s-6.709-15-15-15h-75v30z"/></g><path d="m346 0h-90-90c-8.291 0-15 6.709-15 15s6.709 15 15 15h90 90c8.291 0 15-6.709 15-15s-6.709-15-15-15z" fill="#9ed0ff"/><path d="m361 15c0-8.291-6.709-15-15-15h-90v30h90c8.291 0 15-6.709 15-15z" fill="#73bcff"/></g></svg>