<svg id="Capa_1" enable-background="new 0 0 512 512" height="512" viewBox="0 0 512 512" width="512" xmlns="http://www.w3.org/2000/svg"><g><path d="m450 339.792v60c0 8.28-6.72 15-15 15h-99.35c-22.12 23.11-49.41 40.35-79.65 50.29-19.31 6.35-39.84 9.71-61 9.71-107.52 0-195-87.48-195-195s87.48-195 195-195c8.28 0 15 6.72 15 15v59.4l46 85.78 42.8 79.82h136.2c8.28 0 15 6.719 15 15z" fill="#ec5569"/><path d="m450 339.792v60c0 8.28-6.72 15-15 15h-99.35c-22.12 23.11-49.41 40.35-79.65 50.29v-220.11l42.8 79.82h136.2c8.28 0 15 6.719 15 15z" fill="#cc2e43"/><g><g><path d="m498.82 50.401c-17.71-17.72-46.42-17.56-63.94.3-40.78 41.55-97 70.07-158.3 80.29-7.56 1.22-14.37 2.34-20.58 3.38-32.79 5.49-49.17 8.66-73.96 11.04-57.53 5.51-104.44 47.15-118.05 101.68l13.01 25.2-16.98 10.11c.92 47.65 25.19 87.79 61.64 111.09l19.34-9.7 7.65 22.97c14.37 5.17 29.94 8 46.25 8 21.92 0 42.7-5.22 61.1-14.56 32.21-16.33 57.13-45.24 68.06-80.76 5.69-18.48 30.64-29.16 59.53-41.53 54.19-23.2 128.41-54.97 128.41-167.78v-27.91c0-11.885-4.578-23.217-13.18-31.82z" fill="#fed843"/></g></g><path d="m512 82.221v27.91c0 112.81-74.22 144.58-128.41 167.78-28.89 12.37-53.84 23.05-59.53 41.53-10.93 35.52-35.85 64.43-68.06 80.76v-265.83c6.21-1.04 13.02-2.16 20.58-3.38 61.3-10.22 117.52-38.74 158.3-80.29 17.52-17.86 46.23-18.02 63.94-.3 8.608 8.608 13.18 19.942 13.18 31.82z" fill="#fabe2c"/><path d="m445.61 140.401-18.59 18.58c-16.21 16.22-33.79 30.84-52.56 43.77l7.25 3.62c7.41 3.71 10.41 12.72 6.71 20.13-3.7 7.4-12.71 10.42-20.13 6.71l-23.75-11.88c-15.94 8.93-50.59 23.06-88.54 51.36-37.51 27.96-78.27 69.78-107.35 134.07-9.57-3.43-18.61-7.9-26.99-13.27 11.27-24.89 25.21-48.38 41.69-70.3-37.59-4.53-73.08-18.61-103.33-40.79-.24-12.19 1.15-24.03 3.97-35.31 33.77 29.96 77.16 46.97 122.98 47.66 7.37-8.05 15.04-15.76 23.03-23.1v-51.86c0-8.28 6.72-15 15-15s15 6.72 15 15v27.09c5.23-3.88 10.56-7.62 16-11.22 4.59-3.05 9.26-6 14-8.85v-37.02c0-8.28 6.72-15 15-15s15 6.72 15 15v20.73c9.06-5.29 56.78-23.72 105.81-72.75l18.58-18.59c5.86-5.85 15.36-5.85 21.22 0 5.85 5.861 5.85 15.361 0 21.22z" fill="#fabe2c"/><path d="m445.61 140.401-18.59 18.58c-16.21 16.22-33.79 30.84-52.56 43.77l7.25 3.62c7.41 3.71 10.41 12.72 6.71 20.13-3.7 7.4-12.71 10.42-20.13 6.71l-23.75-11.88c-15.94 8.93-50.59 23.06-88.54 51.36v-37.03c4.59-3.05 9.26-6 14-8.85v-37.02c0-8.28 6.72-15 15-15s15 6.72 15 15v20.73c9.06-5.29 56.78-23.72 105.81-72.75l18.58-18.59c5.86-5.85 15.36-5.85 21.22 0 5.85 5.861 5.85 15.361 0 21.22z" fill="#ff9100"/></g></svg>